<mxfile host="app.diagrams.net" modified="2023-05-30T13:05:37.923Z" agent="Mozilla/5.0 (Windows NT 10.0; Win64; x64) AppleWebKit/537.36 (KHTML, like Gecko) Chrome/113.0.0.0 Safari/537.36" etag="vYn0432_hlOvJpmv6joG" version="21.3.5" type="device">
  <diagram name="페이지-1" id="RQ32KHIv_9uSmckIaK-a">
    <mxGraphModel dx="1434" dy="764" grid="1" gridSize="10" guides="1" tooltips="1" connect="1" arrows="1" fold="1" page="1" pageScale="1" pageWidth="827" pageHeight="1169" math="0" shadow="0">
      <root>
        <mxCell id="0" />
        <mxCell id="1" parent="0" />
        <mxCell id="4w7rJXpaWg8g8c710yyT-1" value="gene_net" style="swimlane;fontStyle=0;childLayout=stackLayout;horizontal=1;startSize=30;horizontalStack=0;resizeParent=1;resizeParentMax=0;resizeLast=0;collapsible=1;marginBottom=0;whiteSpace=wrap;html=1;" parent="1" vertex="1">
          <mxGeometry x="170" y="420" width="140" height="190" as="geometry" />
        </mxCell>
        <mxCell id="4w7rJXpaWg8g8c710yyT-2" value="init_val_chk" style="text;strokeColor=none;fillColor=none;align=left;verticalAlign=middle;spacingLeft=4;spacingRight=4;overflow=hidden;points=[[0,0.5],[1,0.5]];portConstraint=eastwest;rotatable=0;whiteSpace=wrap;html=1;" parent="4w7rJXpaWg8g8c710yyT-1" vertex="1">
          <mxGeometry y="30" width="140" height="30" as="geometry" />
        </mxCell>
        <mxCell id="4w7rJXpaWg8g8c710yyT-6" value="x_out" style="text;strokeColor=none;fillColor=none;align=right;verticalAlign=middle;spacingLeft=4;spacingRight=4;overflow=hidden;points=[[0,0.5],[1,0.5]];portConstraint=eastwest;rotatable=0;whiteSpace=wrap;html=1;" parent="4w7rJXpaWg8g8c710yyT-1" vertex="1">
          <mxGeometry y="60" width="140" height="90" as="geometry" />
        </mxCell>
        <mxCell id="4w7rJXpaWg8g8c710yyT-3" value="▷clk" style="text;strokeColor=none;fillColor=none;align=left;verticalAlign=middle;spacingLeft=4;spacingRight=4;overflow=hidden;points=[[0,0.5],[1,0.5]];portConstraint=eastwest;rotatable=0;whiteSpace=wrap;html=1;" parent="4w7rJXpaWg8g8c710yyT-1" vertex="1">
          <mxGeometry y="150" width="140" height="40" as="geometry" />
        </mxCell>
        <mxCell id="4w7rJXpaWg8g8c710yyT-8" value="fixed_point_checker" style="swimlane;fontStyle=0;childLayout=stackLayout;horizontal=1;startSize=30;horizontalStack=0;resizeParent=1;resizeParentMax=0;resizeLast=0;collapsible=1;marginBottom=0;whiteSpace=wrap;html=1;" parent="1" vertex="1">
          <mxGeometry x="550" y="270" width="140" height="190" as="geometry" />
        </mxCell>
        <mxCell id="4w7rJXpaWg8g8c710yyT-10" value="x" style="text;strokeColor=none;fillColor=none;align=left;verticalAlign=middle;spacingLeft=4;spacingRight=4;overflow=hidden;points=[[0,0.5],[1,0.5]];portConstraint=eastwest;rotatable=0;whiteSpace=wrap;html=1;" parent="4w7rJXpaWg8g8c710yyT-8" vertex="1">
          <mxGeometry y="30" width="140" height="30" as="geometry" />
        </mxCell>
        <mxCell id="4w7rJXpaWg8g8c710yyT-13" value="flag" style="text;strokeColor=none;fillColor=none;align=right;verticalAlign=middle;spacingLeft=4;spacingRight=4;overflow=hidden;points=[[0,0.5],[1,0.5]];portConstraint=eastwest;rotatable=0;whiteSpace=wrap;html=1;" parent="4w7rJXpaWg8g8c710yyT-8" vertex="1">
          <mxGeometry y="60" width="140" height="60" as="geometry" />
        </mxCell>
        <mxCell id="4w7rJXpaWg8g8c710yyT-9" value="rst" style="text;strokeColor=none;fillColor=none;align=left;verticalAlign=middle;spacingLeft=4;spacingRight=4;overflow=hidden;points=[[0,0.5],[1,0.5]];portConstraint=eastwest;rotatable=0;whiteSpace=wrap;html=1;" parent="4w7rJXpaWg8g8c710yyT-8" vertex="1">
          <mxGeometry y="120" width="140" height="40" as="geometry" />
        </mxCell>
        <mxCell id="4w7rJXpaWg8g8c710yyT-11" value="▷clk" style="text;strokeColor=none;fillColor=none;align=left;verticalAlign=middle;spacingLeft=4;spacingRight=4;overflow=hidden;points=[[0,0.5],[1,0.5]];portConstraint=eastwest;rotatable=0;whiteSpace=wrap;html=1;" parent="4w7rJXpaWg8g8c710yyT-8" vertex="1">
          <mxGeometry y="160" width="140" height="30" as="geometry" />
        </mxCell>
        <mxCell id="4w7rJXpaWg8g8c710yyT-14" value="cycle" style="swimlane;fontStyle=0;childLayout=stackLayout;horizontal=1;startSize=30;horizontalStack=0;resizeParent=1;resizeParentMax=0;resizeLast=0;collapsible=1;marginBottom=0;whiteSpace=wrap;html=1;" parent="1" vertex="1">
          <mxGeometry x="550" y="490" width="140" height="190" as="geometry" />
        </mxCell>
        <mxCell id="4w7rJXpaWg8g8c710yyT-16" value="x" style="text;strokeColor=none;fillColor=none;align=left;verticalAlign=middle;spacingLeft=4;spacingRight=4;overflow=hidden;points=[[0,0.5],[1,0.5]];portConstraint=eastwest;rotatable=0;whiteSpace=wrap;html=1;" parent="4w7rJXpaWg8g8c710yyT-14" vertex="1">
          <mxGeometry y="30" width="140" height="30" as="geometry" />
        </mxCell>
        <mxCell id="4w7rJXpaWg8g8c710yyT-18" value="flag" style="text;strokeColor=none;fillColor=none;align=right;verticalAlign=middle;spacingLeft=4;spacingRight=4;overflow=hidden;points=[[0,0.5],[1,0.5]];portConstraint=eastwest;rotatable=0;whiteSpace=wrap;html=1;" parent="4w7rJXpaWg8g8c710yyT-14" vertex="1">
          <mxGeometry y="60" width="140" height="70" as="geometry" />
        </mxCell>
        <mxCell id="4w7rJXpaWg8g8c710yyT-15" value="rst" style="text;strokeColor=none;fillColor=none;align=left;verticalAlign=middle;spacingLeft=4;spacingRight=4;overflow=hidden;points=[[0,0.5],[1,0.5]];portConstraint=eastwest;rotatable=0;whiteSpace=wrap;html=1;" parent="4w7rJXpaWg8g8c710yyT-14" vertex="1">
          <mxGeometry y="130" width="140" height="30" as="geometry" />
        </mxCell>
        <mxCell id="4w7rJXpaWg8g8c710yyT-17" value="▷clk" style="text;strokeColor=none;fillColor=none;align=left;verticalAlign=middle;spacingLeft=4;spacingRight=4;overflow=hidden;points=[[0,0.5],[1,0.5]];portConstraint=eastwest;rotatable=0;whiteSpace=wrap;html=1;" parent="4w7rJXpaWg8g8c710yyT-14" vertex="1">
          <mxGeometry y="160" width="140" height="30" as="geometry" />
        </mxCell>
        <mxCell id="4w7rJXpaWg8g8c710yyT-19" value="init_val_gen" style="swimlane;fontStyle=0;childLayout=stackLayout;horizontal=1;startSize=30;horizontalStack=0;resizeParent=1;resizeParentMax=0;resizeLast=0;collapsible=1;marginBottom=0;whiteSpace=wrap;html=1;" parent="1" vertex="1">
          <mxGeometry x="170" y="200" width="140" height="190" as="geometry" />
        </mxCell>
        <mxCell id="4w7rJXpaWg8g8c710yyT-20" value="current_val" style="text;strokeColor=none;fillColor=none;align=left;verticalAlign=middle;spacingLeft=4;spacingRight=4;overflow=hidden;points=[[0,0.5],[1,0.5]];portConstraint=eastwest;rotatable=0;whiteSpace=wrap;html=1;" parent="4w7rJXpaWg8g8c710yyT-19" vertex="1">
          <mxGeometry y="30" width="140" height="30" as="geometry" />
        </mxCell>
        <mxCell id="4w7rJXpaWg8g8c710yyT-21" value="fixed" style="text;strokeColor=none;fillColor=none;align=left;verticalAlign=middle;spacingLeft=4;spacingRight=4;overflow=hidden;points=[[0,0.5],[1,0.5]];portConstraint=eastwest;rotatable=0;whiteSpace=wrap;html=1;" parent="4w7rJXpaWg8g8c710yyT-19" vertex="1">
          <mxGeometry y="60" width="140" height="30" as="geometry" />
        </mxCell>
        <mxCell id="4w7rJXpaWg8g8c710yyT-23" value="cycle" style="text;strokeColor=none;fillColor=none;align=left;verticalAlign=middle;spacingLeft=4;spacingRight=4;overflow=hidden;points=[[0,0.5],[1,0.5]];portConstraint=eastwest;rotatable=0;whiteSpace=wrap;html=1;" parent="4w7rJXpaWg8g8c710yyT-19" vertex="1">
          <mxGeometry y="90" width="140" height="30" as="geometry" />
        </mxCell>
        <mxCell id="4w7rJXpaWg8g8c710yyT-24" value="init_val_out" style="text;strokeColor=none;fillColor=none;align=right;verticalAlign=middle;spacingLeft=4;spacingRight=4;overflow=hidden;points=[[0,0.5],[1,0.5]];portConstraint=eastwest;rotatable=0;whiteSpace=wrap;html=1;" parent="4w7rJXpaWg8g8c710yyT-19" vertex="1">
          <mxGeometry y="120" width="140" height="40" as="geometry" />
        </mxCell>
        <mxCell id="4w7rJXpaWg8g8c710yyT-22" value="▷clk" style="text;strokeColor=none;fillColor=none;align=left;verticalAlign=middle;spacingLeft=4;spacingRight=4;overflow=hidden;points=[[0,0.5],[1,0.5]];portConstraint=eastwest;rotatable=0;whiteSpace=wrap;html=1;" parent="4w7rJXpaWg8g8c710yyT-19" vertex="1">
          <mxGeometry y="160" width="140" height="30" as="geometry" />
        </mxCell>
        <mxCell id="4w7rJXpaWg8g8c710yyT-33" style="edgeStyle=orthogonalEdgeStyle;rounded=0;orthogonalLoop=1;jettySize=auto;html=1;exitX=1;exitY=0.5;exitDx=0;exitDy=0;endArrow=none;endFill=0;" parent="1" target="4w7rJXpaWg8g8c710yyT-17" edge="1">
          <mxGeometry relative="1" as="geometry">
            <mxPoint x="260" y="660" as="targetPoint" />
            <mxPoint x="40" y="665" as="sourcePoint" />
            <Array as="points">
              <mxPoint x="40" y="670" />
            </Array>
          </mxGeometry>
        </mxCell>
        <mxCell id="4w7rJXpaWg8g8c710yyT-39" style="edgeStyle=orthogonalEdgeStyle;rounded=0;orthogonalLoop=1;jettySize=auto;html=1;exitX=0.667;exitY=0.5;exitDx=0;exitDy=0;endArrow=none;endFill=0;entryX=0;entryY=0.5;entryDx=0;entryDy=0;exitPerimeter=0;" parent="1" source="4w7rJXpaWg8g8c710yyT-56" target="4w7rJXpaWg8g8c710yyT-45" edge="1">
          <mxGeometry relative="1" as="geometry">
            <mxPoint x="40" y="665" as="sourcePoint" />
            <Array as="points">
              <mxPoint x="100" y="670" />
              <mxPoint x="100" y="375" />
            </Array>
          </mxGeometry>
        </mxCell>
        <mxCell id="4w7rJXpaWg8g8c710yyT-45" value="" style="ellipse;whiteSpace=wrap;html=1;" parent="1" vertex="1">
          <mxGeometry x="160" y="370" width="10" height="10" as="geometry" />
        </mxCell>
        <mxCell id="4w7rJXpaWg8g8c710yyT-71" style="edgeStyle=orthogonalEdgeStyle;rounded=0;orthogonalLoop=1;jettySize=auto;html=1;exitX=1;exitY=0.5;exitDx=0;exitDy=0;endArrow=none;endFill=0;" parent="1" source="4w7rJXpaWg8g8c710yyT-88" target="4w7rJXpaWg8g8c710yyT-11" edge="1">
          <mxGeometry relative="1" as="geometry">
            <Array as="points">
              <mxPoint x="430" y="670" />
              <mxPoint x="430" y="670" />
              <mxPoint x="430" y="445" />
            </Array>
          </mxGeometry>
        </mxCell>
        <mxCell id="4w7rJXpaWg8g8c710yyT-96" style="edgeStyle=orthogonalEdgeStyle;rounded=0;orthogonalLoop=1;jettySize=auto;html=1;exitX=1;exitY=0.5;exitDx=0;exitDy=0;endArrow=none;endFill=0;" parent="1" source="4w7rJXpaWg8g8c710yyT-98" target="4w7rJXpaWg8g8c710yyT-3" edge="1">
          <mxGeometry relative="1" as="geometry">
            <Array as="points">
              <mxPoint x="130" y="590" />
            </Array>
          </mxGeometry>
        </mxCell>
        <mxCell id="4w7rJXpaWg8g8c710yyT-56" value="clk" style="rounded=0;whiteSpace=wrap;html=1;" parent="1" vertex="1">
          <mxGeometry x="10" y="657" width="30" height="26" as="geometry" />
        </mxCell>
        <mxCell id="4w7rJXpaWg8g8c710yyT-58" value="init_val" style="rounded=0;whiteSpace=wrap;html=1;" parent="1" vertex="1">
          <mxGeometry x="380" y="325" width="60" height="30" as="geometry" />
        </mxCell>
        <mxCell id="4w7rJXpaWg8g8c710yyT-62" value="" style="endArrow=none;html=1;rounded=0;endFill=0;" parent="1" source="4w7rJXpaWg8g8c710yyT-24" target="4w7rJXpaWg8g8c710yyT-58" edge="1">
          <mxGeometry relative="1" as="geometry">
            <mxPoint x="230" y="290" as="sourcePoint" />
            <mxPoint x="390" y="290" as="targetPoint" />
          </mxGeometry>
        </mxCell>
        <mxCell id="4w7rJXpaWg8g8c710yyT-64" value="init_val_mod" style="edgeLabel;resizable=0;html=1;align=left;verticalAlign=bottom;" parent="4w7rJXpaWg8g8c710yyT-62" connectable="0" vertex="1">
          <mxGeometry x="-1" relative="1" as="geometry" />
        </mxCell>
        <mxCell id="4w7rJXpaWg8g8c710yyT-65" value="" style="endArrow=none;html=1;rounded=0;endFill=0;edgeStyle=orthogonalEdgeStyle;elbow=vertical;" parent="1" source="4w7rJXpaWg8g8c710yyT-58" target="4w7rJXpaWg8g8c710yyT-9" edge="1">
          <mxGeometry relative="1" as="geometry">
            <mxPoint x="410" y="430" as="sourcePoint" />
            <mxPoint x="520" y="310" as="targetPoint" />
            <Array as="points">
              <mxPoint x="490" y="340" />
              <mxPoint x="490" y="410" />
            </Array>
          </mxGeometry>
        </mxCell>
        <mxCell id="4w7rJXpaWg8g8c710yyT-66" value="init_val" style="edgeLabel;resizable=0;html=1;align=left;verticalAlign=bottom;" parent="4w7rJXpaWg8g8c710yyT-65" connectable="0" vertex="1">
          <mxGeometry x="-1" relative="1" as="geometry" />
        </mxCell>
        <mxCell id="4w7rJXpaWg8g8c710yyT-67" value="" style="endArrow=none;html=1;rounded=0;endFill=0;edgeStyle=orthogonalEdgeStyle;elbow=vertical;exitX=1;exitY=0.5;exitDx=0;exitDy=0;" parent="1" source="4w7rJXpaWg8g8c710yyT-58" target="4w7rJXpaWg8g8c710yyT-15" edge="1">
          <mxGeometry relative="1" as="geometry">
            <mxPoint x="460" y="350" as="sourcePoint" />
            <mxPoint x="560" y="325" as="targetPoint" />
            <Array as="points">
              <mxPoint x="490" y="340" />
              <mxPoint x="490" y="635" />
            </Array>
          </mxGeometry>
        </mxCell>
        <mxCell id="4w7rJXpaWg8g8c710yyT-68" value="init_val" style="edgeLabel;resizable=0;html=1;align=left;verticalAlign=bottom;" parent="4w7rJXpaWg8g8c710yyT-67" connectable="0" vertex="1">
          <mxGeometry x="-1" relative="1" as="geometry" />
        </mxCell>
        <mxCell id="4w7rJXpaWg8g8c710yyT-69" value="" style="endArrow=none;html=1;rounded=0;endFill=0;edgeStyle=orthogonalEdgeStyle;elbow=vertical;exitX=1;exitY=0.5;exitDx=0;exitDy=0;" parent="1" source="4w7rJXpaWg8g8c710yyT-82" target="4w7rJXpaWg8g8c710yyT-2" edge="1">
          <mxGeometry relative="1" as="geometry">
            <mxPoint x="460" y="350" as="sourcePoint" />
            <mxPoint x="560" y="545" as="targetPoint" />
            <Array as="points">
              <mxPoint x="130" y="410" />
              <mxPoint x="130" y="465" />
            </Array>
          </mxGeometry>
        </mxCell>
        <mxCell id="4w7rJXpaWg8g8c710yyT-73" value="" style="endArrow=none;html=1;rounded=0;endFill=0;edgeStyle=orthogonalEdgeStyle;elbow=vertical;" parent="1" source="4w7rJXpaWg8g8c710yyT-85" target="4w7rJXpaWg8g8c710yyT-16" edge="1">
          <mxGeometry relative="1" as="geometry">
            <mxPoint x="799.97" y="650.03" as="sourcePoint" />
            <mxPoint x="529.97" y="775.03" as="targetPoint" />
            <Array as="points">
              <mxPoint x="510" y="535" />
            </Array>
          </mxGeometry>
        </mxCell>
        <mxCell id="4w7rJXpaWg8g8c710yyT-75" value="" style="endArrow=none;html=1;rounded=0;endFill=0;edgeStyle=orthogonalEdgeStyle;elbow=vertical;" parent="1" source="4w7rJXpaWg8g8c710yyT-85" target="4w7rJXpaWg8g8c710yyT-10" edge="1">
          <mxGeometry relative="1" as="geometry">
            <mxPoint x="320" y="535" as="sourcePoint" />
            <mxPoint x="560" y="575" as="targetPoint" />
            <Array as="points">
              <mxPoint x="510" y="315" />
            </Array>
          </mxGeometry>
        </mxCell>
        <mxCell id="4w7rJXpaWg8g8c710yyT-77" style="edgeStyle=orthogonalEdgeStyle;rounded=0;orthogonalLoop=1;jettySize=auto;html=1;exitX=1;exitY=0.5;exitDx=0;exitDy=0;endArrow=none;endFill=0;" parent="1" source="4w7rJXpaWg8g8c710yyT-13" target="4w7rJXpaWg8g8c710yyT-21" edge="1">
          <mxGeometry relative="1" as="geometry">
            <Array as="points">
              <mxPoint x="750" y="360" />
              <mxPoint x="750" y="160" />
              <mxPoint x="80" y="160" />
              <mxPoint x="80" y="275" />
            </Array>
          </mxGeometry>
        </mxCell>
        <mxCell id="4w7rJXpaWg8g8c710yyT-78" value="fixed_chk" style="edgeLabel;resizable=0;html=1;align=left;verticalAlign=bottom;" parent="1" connectable="0" vertex="1">
          <mxGeometry x="690" y="360.9999999999999" as="geometry" />
        </mxCell>
        <mxCell id="4w7rJXpaWg8g8c710yyT-79" style="edgeStyle=orthogonalEdgeStyle;rounded=0;orthogonalLoop=1;jettySize=auto;html=1;exitX=1;exitY=0.5;exitDx=0;exitDy=0;endArrow=none;endFill=0;" parent="1" source="4w7rJXpaWg8g8c710yyT-18" target="4w7rJXpaWg8g8c710yyT-23" edge="1">
          <mxGeometry relative="1" as="geometry">
            <Array as="points">
              <mxPoint x="690" y="615" />
              <mxPoint x="760" y="615" />
              <mxPoint x="760" y="150" />
              <mxPoint x="70" y="150" />
              <mxPoint x="70" y="305" />
            </Array>
          </mxGeometry>
        </mxCell>
        <mxCell id="4w7rJXpaWg8g8c710yyT-80" value="cycle_chk" style="edgeLabel;resizable=0;html=1;align=left;verticalAlign=bottom;" parent="1" connectable="0" vertex="1">
          <mxGeometry x="690" y="613.9999999999999" as="geometry" />
        </mxCell>
        <mxCell id="4w7rJXpaWg8g8c710yyT-83" value="" style="endArrow=none;html=1;rounded=0;endFill=0;edgeStyle=orthogonalEdgeStyle;elbow=vertical;exitX=1;exitY=0.5;exitDx=0;exitDy=0;" parent="1" source="4w7rJXpaWg8g8c710yyT-58" target="4w7rJXpaWg8g8c710yyT-82" edge="1">
          <mxGeometry relative="1" as="geometry">
            <mxPoint x="440" y="340" as="sourcePoint" />
            <mxPoint x="170" y="465" as="targetPoint" />
            <Array as="points">
              <mxPoint x="490" y="340" />
              <mxPoint x="490" y="410" />
            </Array>
          </mxGeometry>
        </mxCell>
        <mxCell id="4w7rJXpaWg8g8c710yyT-84" value="init_val" style="edgeLabel;resizable=0;html=1;align=left;verticalAlign=bottom;" parent="4w7rJXpaWg8g8c710yyT-83" connectable="0" vertex="1">
          <mxGeometry x="-1" relative="1" as="geometry" />
        </mxCell>
        <mxCell id="4w7rJXpaWg8g8c710yyT-82" value="" style="ellipse;whiteSpace=wrap;html=1;strokeColor=none;fillStyle=solid;fillColor=#000000;gradientColor=none;" parent="1" vertex="1">
          <mxGeometry x="484" y="405" width="10" height="10" as="geometry" />
        </mxCell>
        <mxCell id="4w7rJXpaWg8g8c710yyT-86" value="" style="endArrow=none;html=1;rounded=0;endFill=0;edgeStyle=orthogonalEdgeStyle;elbow=vertical;" parent="1" source="4w7rJXpaWg8g8c710yyT-6" target="4w7rJXpaWg8g8c710yyT-85" edge="1">
          <mxGeometry relative="1" as="geometry">
            <mxPoint x="310" y="525" as="sourcePoint" />
            <mxPoint x="550" y="350" as="targetPoint" />
            <Array as="points" />
          </mxGeometry>
        </mxCell>
        <mxCell id="4w7rJXpaWg8g8c710yyT-87" value="x" style="edgeLabel;resizable=0;html=1;align=left;verticalAlign=bottom;" parent="4w7rJXpaWg8g8c710yyT-86" connectable="0" vertex="1">
          <mxGeometry x="-1" relative="1" as="geometry" />
        </mxCell>
        <mxCell id="4w7rJXpaWg8g8c710yyT-89" value="" style="edgeStyle=orthogonalEdgeStyle;rounded=0;orthogonalLoop=1;jettySize=auto;html=1;endArrow=none;endFill=0;exitX=1;exitY=0.5;exitDx=0;exitDy=0;" parent="1" source="4w7rJXpaWg8g8c710yyT-98" target="4w7rJXpaWg8g8c710yyT-88" edge="1">
          <mxGeometry relative="1" as="geometry">
            <mxPoint x="100" y="760" as="sourcePoint" />
            <mxPoint x="550" y="445" as="targetPoint" />
            <Array as="points">
              <mxPoint x="140" y="670" />
              <mxPoint x="140" y="670" />
            </Array>
          </mxGeometry>
        </mxCell>
        <mxCell id="4w7rJXpaWg8g8c710yyT-88" value="" style="ellipse;whiteSpace=wrap;html=1;strokeColor=none;fillStyle=solid;fillColor=#000000;gradientColor=none;" parent="1" vertex="1">
          <mxGeometry x="425" y="665" width="10" height="10" as="geometry" />
        </mxCell>
        <mxCell id="4w7rJXpaWg8g8c710yyT-97" value="" style="ellipse;whiteSpace=wrap;html=1;strokeColor=none;fillStyle=solid;fillColor=#000000;gradientColor=none;" parent="1" vertex="1">
          <mxGeometry x="125" y="665" width="10" height="10" as="geometry" />
        </mxCell>
        <mxCell id="4w7rJXpaWg8g8c710yyT-99" value="" style="edgeStyle=orthogonalEdgeStyle;rounded=0;orthogonalLoop=1;jettySize=auto;html=1;endArrow=none;endFill=0;exitX=1;exitY=0.5;exitDx=0;exitDy=0;" parent="1" source="4w7rJXpaWg8g8c710yyT-56" target="4w7rJXpaWg8g8c710yyT-98" edge="1">
          <mxGeometry relative="1" as="geometry">
            <mxPoint x="40" y="670" as="sourcePoint" />
            <mxPoint x="425" y="670" as="targetPoint" />
            <Array as="points" />
          </mxGeometry>
        </mxCell>
        <mxCell id="4w7rJXpaWg8g8c710yyT-100" value="" style="edgeStyle=orthogonalEdgeStyle;rounded=0;orthogonalLoop=1;jettySize=auto;html=1;exitX=1;exitY=0.5;exitDx=0;exitDy=0;endArrow=none;endFill=0;" parent="1" source="4w7rJXpaWg8g8c710yyT-56" target="4w7rJXpaWg8g8c710yyT-98" edge="1">
          <mxGeometry relative="1" as="geometry">
            <mxPoint x="40" y="670" as="sourcePoint" />
            <mxPoint x="170" y="590" as="targetPoint" />
            <Array as="points">
              <mxPoint x="130" y="670" />
            </Array>
          </mxGeometry>
        </mxCell>
        <mxCell id="4w7rJXpaWg8g8c710yyT-98" value="" style="ellipse;whiteSpace=wrap;html=1;strokeColor=none;fillStyle=solid;fillColor=#000000;gradientColor=none;" parent="1" vertex="1">
          <mxGeometry x="95" y="665" width="10" height="10" as="geometry" />
        </mxCell>
        <mxCell id="6XVTY5NzVhwPI-PJ-XIX-2" value="init_val" style="edgeLabel;resizable=0;html=1;align=left;verticalAlign=bottom;" parent="1" connectable="0" vertex="1">
          <mxGeometry x="130.00000000000023" y="243.9999999999999" as="geometry" />
        </mxCell>
        <mxCell id="6XVTY5NzVhwPI-PJ-XIX-1" style="edgeStyle=orthogonalEdgeStyle;rounded=0;orthogonalLoop=1;jettySize=auto;html=1;exitX=0;exitY=0.5;exitDx=0;exitDy=0;entryX=1;entryY=0.5;entryDx=0;entryDy=0;endArrow=none;endFill=0;" parent="1" source="4w7rJXpaWg8g8c710yyT-20" target="4w7rJXpaWg8g8c710yyT-58" edge="1">
          <mxGeometry relative="1" as="geometry">
            <mxPoint x="489.9999999999998" y="319.9999999999999" as="targetPoint" />
            <Array as="points">
              <mxPoint x="90" y="245" />
              <mxPoint x="90" y="170" />
              <mxPoint x="490" y="170" />
              <mxPoint x="490" y="340" />
            </Array>
          </mxGeometry>
        </mxCell>
        <mxCell id="gKEdgpDxOSH6f1EjOdLO-9" value="" style="ellipse;whiteSpace=wrap;html=1;strokeColor=none;fillStyle=solid;fillColor=#000000;gradientColor=none;" vertex="1" parent="1">
          <mxGeometry x="485" y="310" width="10" height="10" as="geometry" />
        </mxCell>
        <mxCell id="gKEdgpDxOSH6f1EjOdLO-10" value="fixed_chk" style="edgeLabel;resizable=0;html=1;align=left;verticalAlign=bottom;" connectable="0" vertex="1" parent="1">
          <mxGeometry x="120" y="273.9999999999999" as="geometry" />
        </mxCell>
        <mxCell id="gKEdgpDxOSH6f1EjOdLO-11" value="cycle_chk" style="edgeLabel;resizable=0;html=1;align=left;verticalAlign=bottom;" connectable="0" vertex="1" parent="1">
          <mxGeometry x="118" y="303.9999999999999" as="geometry" />
        </mxCell>
        <mxCell id="gKEdgpDxOSH6f1EjOdLO-12" value="init_val" style="edgeLabel;resizable=0;html=1;align=left;verticalAlign=bottom;" connectable="0" vertex="1" parent="1">
          <mxGeometry x="512.0000000000002" y="409.9999999999999" as="geometry" />
        </mxCell>
        <mxCell id="gKEdgpDxOSH6f1EjOdLO-13" value="init_val" style="edgeLabel;resizable=0;html=1;align=left;verticalAlign=bottom;" connectable="0" vertex="1" parent="1">
          <mxGeometry x="512.0000000000002" y="634.9999999999999" as="geometry" />
        </mxCell>
        <mxCell id="gKEdgpDxOSH6f1EjOdLO-16" value="" style="endArrow=none;html=1;rounded=0;endFill=0;edgeStyle=orthogonalEdgeStyle;elbow=vertical;" edge="1" parent="1" source="4w7rJXpaWg8g8c710yyT-6" target="4w7rJXpaWg8g8c710yyT-85">
          <mxGeometry relative="1" as="geometry">
            <mxPoint x="310" y="525" as="sourcePoint" />
            <mxPoint x="550" y="535" as="targetPoint" />
            <Array as="points" />
          </mxGeometry>
        </mxCell>
        <mxCell id="gKEdgpDxOSH6f1EjOdLO-17" value="x" style="edgeLabel;resizable=0;html=1;align=left;verticalAlign=bottom;" connectable="0" vertex="1" parent="gKEdgpDxOSH6f1EjOdLO-16">
          <mxGeometry x="-1" relative="1" as="geometry" />
        </mxCell>
        <mxCell id="4w7rJXpaWg8g8c710yyT-85" value="" style="ellipse;whiteSpace=wrap;html=1;strokeColor=none;fillStyle=solid;fillColor=#000000;gradientColor=none;" parent="1" vertex="1">
          <mxGeometry x="505" y="520" width="10" height="10" as="geometry" />
        </mxCell>
      </root>
    </mxGraphModel>
  </diagram>
</mxfile>
